<svg width="18" height="18" viewBox="0 0 18 18" fill="none" xmlns="http://www.w3.org/2000/svg">
<path id="priority" d="M5.82353 18C4.20582 18 2.83085 17.4338 1.69862 16.3014C0.566206 15.1691 0 13.7942 0 12.1765V5.82353C0 4.20582 0.566206 2.83085 1.69862 1.69862C2.83085 0.566206 4.20582 0 5.82353 0H12.1765C13.7942 0 15.1691 0.566206 16.3014 1.69862C17.4338 2.83085 18 4.20582 18 5.82353V12.1765C18 13.7942 17.4338 15.1691 16.3014 16.3014C15.1691 17.4338 13.7942 18 12.1765 18H5.82353ZM7.94118 12.8687L13.9275 6.88235L12.8118 5.76662L7.94118 10.6372L5.61177 8.30779L4.49603 9.42353L7.94118 12.8687Z" fill="#A3B4C9"/>
</svg>
